<svg xmlns="http://www.w3.org/2000/svg" viewBox="0 0 320 320" width="320" height="320" role="img" aria-label="Retrato ilustrado">
  <defs>
    <linearGradient id="bg" x1="0" y1="0" x2="0" y2="1">
      <stop offset="0" stop-color="#ec4899" stop-opacity="0.95"/>
      <stop offset="1" stop-color="#ec4899" stop-opacity="0.62"/>
    </linearGradient>
    <clipPath id="marco"><rect width="320" height="320" rx="0"/></clipPath>
  </defs>
  <g clip-path="url(#marco)">
    <rect width="320" height="320" fill="url(#bg)"/>
    <circle cx="160" cy="150" r="118" fill="#ffffff" opacity="0.10"/>
    <!-- hombros -->
    <path d="M40 320c0-58 54-92 120-92s120 34 120 92z" fill="#f6f1ea"/>
    <path d="M40 320c0-58 54-92 120-92s120 34 120 92z" fill="#000" opacity="0.05"/>
    <!-- cuello -->
    <path d="M140 196h40v34c0 10-9 16-20 16s-20-6-20-16z" fill="#f0c8a8"/>
    <!-- cara -->
    <ellipse cx="160" cy="140" rx="52" ry="60" fill="#f0c8a8"/>
    
      <path d="M96 96c0-34 25-58 64-58s64 24 64 58c0 22-4 40-8 62-3 15-6 34-6 46h-22c4-26 8-44 9-62-13 10-23 14-37 14s-24-4-37-14c1 18 5 36 9 62h-22c0-12-3-31-6-46-4-22-8-40-8-62z" fill="#3b2417"/>
  </g>
</svg>
