<svg xmlns="http://www.w3.org/2000/svg" viewBox="0 0 40 40">
  <defs>
    <linearGradient id="mGrad" x1="0" y1="1" x2="0" y2="0">
      <stop offset="0" stop-color="#e0340e" />
      <stop offset=".5" stop-color="#ff7a2e" />
      <stop offset="1" stop-color="#ffcf4a" />
    </linearGradient>
  </defs>
  <path d="M22.5 3.5c-1 5.5 2.5 8 3 12.5.4 3.4-1.8 5.6-4.2 5.6-2 0-3.3-1.4-3.3-3.3 0-1.6 1-2.8 1-4.4-3.2 2-6.5 5.6-6.5 11.2a9.5 9.5 0 0 0 19 .3c0-6.4-4.6-10.4-7-16.2-.6-1.5-1.2-3.4-2-5.7Z" fill="url(#mGrad)" />
  <path d="M21.8 22.5c-.4 2.6-2.6 3.8-2.4 6.2.15 1.9 1.5 3.1 3.1 3.1 1.9 0 3.3-1.4 3.3-3.4 0-2.8-2-4.3-4-5.9Z" fill="#fff" opacity=".92" />
</svg>
